<svg width="75" height="24" viewBox="0 0 75 24" fill="none" xmlns="http://www.w3.org/2000/svg">
    <path fill-rule="evenodd" clip-rule="evenodd" d="M0.385498 15.5936V15.5475C0.385498 11.0075 3.9129 7.16281 8.87632 7.16281C11.346 7.16281 12.992 7.74126 14.4976 8.80695C14.6797 8.94018 14.8278 9.11444 14.93 9.31561C15.0322 9.51678 15.0856 9.73921 15.0859 9.96488C15.0859 10.7298 14.451 11.3784 13.6508 11.3784C13.2746 11.3784 12.9925 11.216 12.757 11.0536C11.6987 10.2897 10.5463 9.77941 8.75857 9.77941C5.7247 9.77941 3.41987 12.3975 3.41987 15.5009V15.5475C3.41987 18.8829 5.65406 21.3381 9.01762 21.3381C10.5699 21.3381 11.9808 20.8519 12.9925 20.1105V17.0763H9.74665C9.04066 17.0763 8.45343 16.544 8.45343 15.8492C8.45343 15.154 9.04066 14.5981 9.74665 14.5981H14.3333C15.156 14.5981 15.7913 15.2237 15.7913 16.0347V20.3656C15.7913 21.1762 15.4621 21.7556 14.7802 22.1722C13.3687 23.099 11.3931 23.9326 8.92392 23.9326C3.77211 23.9321 0.385498 20.3195 0.385498 15.5936ZM18.3853 8.01947C18.3853 7.25504 18.9966 6.62946 19.7957 6.62946C20.5959 6.62946 21.2307 7.25504 21.2307 8.01947V22.3807C21.2307 23.1682 20.5954 23.7702 19.7957 23.7702C19.0201 23.7702 18.3853 23.1687 18.3853 22.3802V8.01947ZM23.4354 17.6092V17.5621C23.4354 14.0647 26.2573 11.1694 30.0678 11.1694C33.8778 11.1694 36.6772 14.0186 36.6772 17.5164V17.5621C36.6772 21.0373 33.8547 23.9326 30.0207 23.9326C26.2338 23.9326 23.4354 21.0834 23.4354 17.6092ZM33.8312 17.6092V17.5621C33.8312 15.4086 32.2549 13.6251 30.0207 13.6251C27.7389 13.6251 26.2808 15.3856 26.2808 17.5164V17.5621C26.2808 19.6934 27.8567 21.4769 30.0678 21.4769C32.3726 21.4769 33.8312 19.7165 33.8312 17.6092ZM43.7826 23.886H43.6413C42.8657 23.886 42.3476 23.3998 42.0189 22.6579L37.8802 13.3234C37.809 13.1148 37.7148 12.8842 37.7148 12.6286C37.7148 11.9338 38.3497 11.2852 39.1258 11.2852C39.9014 11.2852 40.3013 11.7253 40.5368 12.3048L43.7355 20.4112L46.9813 12.2587C47.1932 11.7719 47.569 11.2852 48.3221 11.2852C49.0982 11.2852 49.7095 11.8647 49.7095 12.6286C49.7095 12.8842 49.6158 13.1619 49.5457 13.3003L45.406 22.6584C45.0753 23.3762 44.5592 23.886 43.7826 23.886ZM50.7472 17.6092V17.5621C50.7472 14.0647 53.5696 11.1694 57.3811 11.1694C61.1901 11.1694 63.9895 14.0186 63.9895 17.5164V17.5621C63.9895 21.0373 61.1671 23.9326 57.333 23.9326C53.5466 23.9326 50.7472 21.0834 50.7472 17.6092ZM61.144 17.6092V17.5621C61.144 15.4086 59.5677 13.6251 57.333 13.6251C55.0517 13.6251 53.5937 15.3856 53.5937 17.5164V17.5621C53.5937 19.6934 55.169 21.4769 57.3806 21.4769C59.685 21.4769 61.144 19.7165 61.144 17.6092ZM68.7485 0.0668945C65.667 0.0668945 63.1603 2.53663 63.1603 5.57079C63.1603 6.7267 63.525 7.83651 64.214 8.77989L64.3628 8.9829L67.2719 13.0266C67.2719 13.0266 67.6271 13.598 68.4013 13.598H69.0962C69.8708 13.598 70.2246 13.0266 70.2246 13.0266L73.1347 8.9829L73.282 8.77989C73.9671 7.85033 74.3367 6.72572 74.3367 5.57079C74.3367 2.53663 71.8299 0.0668945 68.7485 0.0668945ZM71.0483 7.19589L70.8935 7.40943L68.749 10.3905L66.6075 7.41544L66.4502 7.1994C66.1015 6.72799 65.9129 6.15723 65.912 5.57079C65.912 4.0304 67.1847 2.77724 68.748 2.77724C70.3123 2.77724 71.5844 4.0304 71.5844 5.57079C71.5844 6.15476 71.3991 6.71668 71.0483 7.19589ZM67.1767 16.0808V16.0698C67.1767 15.2477 67.8396 14.5665 68.735 14.5665C69.6313 14.5665 70.2887 15.2362 70.2887 16.0588V16.0698C70.2887 16.8858 69.6253 17.5666 68.7244 17.5666C67.8351 17.5666 67.1762 16.8974 67.1762 16.0808H67.1767Z" fill="#219178"/>
</svg>
