<svg width="64" height="64" viewBox="0 0 64 64" fill="none" xmlns="http://www.w3.org/2000/svg">
    <path opacity="0.2" d="M52.575 8.97492L5.97499 22.0999C5.57831 22.2084 5.2247 22.4365 4.96234 22.7532C4.69997 23.0698 4.54161 23.4597 4.50881 23.8696C4.47602 24.2796 4.57039 24.6896 4.77907 25.044C4.98775 25.3984 5.3006 25.6798 5.67499 25.8499L27.075 35.9749C27.4942 36.1691 27.8309 36.5057 28.025 36.9249L38.15 58.3249C38.3201 58.6993 38.6016 59.0122 38.9559 59.2208C39.3103 59.4295 39.7204 59.5239 40.1303 59.4911C40.5402 59.4583 40.9301 59.2999 41.2468 59.0376C41.5634 58.7752 41.7915 58.4216 41.9 58.0249L55.025 11.4249C55.1245 11.0849 55.1306 10.7243 55.0428 10.3811C54.955 10.0378 54.7765 9.7245 54.5259 9.47397C54.2754 9.22344 53.9621 9.04492 53.6189 8.95712C53.2756 8.86931 52.9151 8.87546 52.575 8.97492Z" fill="#00C09E"/>
    <path fill-rule="evenodd" clip-rule="evenodd" d="M53.8665 7.98831C53.3512 7.85651 52.8101 7.86525 52.2994 8.01357L52.2941 8.01513L5.71109 21.1353L5.70695 21.1365C5.1136 21.2996 4.58474 21.6413 4.1921 22.1152C3.79855 22.5902 3.56101 23.175 3.51181 23.7899C3.46262 24.4048 3.60418 25.0199 3.9172 25.5514C4.22878 26.0805 4.69516 26.5012 5.25332 26.7568L26.6471 36.8788L26.6471 36.8789L26.6546 36.8823C26.8588 36.9769 27.0228 37.1409 27.1174 37.3452L27.1174 37.3452L27.1209 37.3526L37.2429 58.7463C37.4985 59.3045 37.9192 59.7709 38.4483 60.0825C38.9798 60.3955 39.595 60.5371 40.2099 60.4879C40.8248 60.4387 41.4095 60.2012 41.8846 59.8076C42.3585 59.415 42.7002 58.8861 42.8633 58.2927L42.8644 58.2886L55.9846 11.7056L55.9861 11.7004C56.1345 11.1897 56.1432 10.6485 56.0114 10.1332C55.8792 9.61619 55.6103 9.14424 55.2329 8.76686C54.8555 8.38949 54.3835 8.12057 53.8665 7.98831ZM52.8459 9.93747L52.5748 8.97492L52.8555 9.93471C53.0234 9.88561 53.2014 9.88258 53.3709 9.92592C53.5403 9.96927 53.695 10.0574 53.8187 10.1811C53.9423 10.3048 54.0305 10.4594 54.0738 10.6289C54.1172 10.7983 54.1141 10.9763 54.065 11.1442L54.065 11.1442L54.0623 11.1538L40.9373 57.7538L40.9352 57.7612C40.881 57.9595 40.7669 58.1363 40.6086 58.2675C40.4503 58.3987 40.2553 58.4779 40.0504 58.4943C39.8454 58.5107 39.6404 58.4635 39.4632 58.3592C39.286 58.2548 39.1453 58.0984 39.0602 57.9112L39.0537 57.8972L28.9322 36.5047L28.9303 36.5004C28.9285 36.4966 28.9267 36.4928 28.9249 36.489L39.7319 25.682C40.1225 25.2915 40.1225 24.6583 39.7319 24.2678C39.3414 23.8773 38.7082 23.8773 38.3177 24.2678L27.5107 35.0748C27.5068 35.073 27.5029 35.0712 27.4991 35.0694L6.10249 24.946L6.08854 24.9395C5.90134 24.8544 5.74492 24.7137 5.64057 24.5366C5.53623 24.3594 5.48905 24.1543 5.50545 23.9494C5.52184 23.7444 5.60103 23.5495 5.73221 23.3911C5.86339 23.2328 6.04019 23.1187 6.23854 23.0645L6.23854 23.0645L6.24592 23.0625L52.8459 9.93747Z" fill="#005142"/>
</svg>