<svg width="63" height="63" viewBox="0 0 63 63" fill="none" xmlns="http://www.w3.org/2000/svg">
    <path opacity="0.2" fill-rule="evenodd" clip-rule="evenodd" d="M52.3933 36.5204L44.666 27.2427C44.9613 32.9274 43.5586 39.5474 39.2273 47.1024L46.6101 53.0087C46.8727 53.2172 47.1841 53.3552 47.5149 53.4096C47.8456 53.464 48.1848 53.4331 48.5003 53.3197C48.8158 53.2063 49.0971 53.0143 49.3176 52.7617C49.538 52.5092 49.6904 52.2045 49.7601 51.8767L52.7871 38.1938C52.8601 37.9038 52.8624 37.6004 52.7939 37.3092C52.7254 37.018 52.588 36.7475 52.3933 36.5204ZM10.459 36.6681L18.1863 27.4149C17.891 33.0997 19.2937 39.7196 23.625 47.2501L16.2422 53.1564C15.9813 53.3648 15.6717 53.5034 15.3425 53.5593C15.0133 53.6151 14.6753 53.5863 14.3603 53.4756C14.0453 53.3648 13.7636 53.1758 13.5417 52.9262C13.3199 52.6766 13.1652 52.3748 13.0922 52.0489L10.0652 38.3415C9.99223 38.0514 9.9899 37.748 10.0584 37.4569C10.1269 37.1657 10.2643 36.8952 10.459 36.6681Z" fill="#00C09E"/>
    <path fill-rule="evenodd" clip-rule="evenodd" d="M29.6372 4.09786C30.1609 3.66403 30.8196 3.42651 31.4999 3.42651C32.1816 3.42651 32.8418 3.6651 33.366 4.10077C35.746 6.0385 40.898 10.846 43.7412 18.2365C44.7309 20.8091 45.4358 23.6822 45.6525 26.8398L53.3053 36.0231C53.6014 36.3705 53.8104 36.7835 53.915 37.2278C54.0189 37.6694 54.0166 38.1293 53.9084 38.5698L50.8843 52.2646L50.8836 52.2677C50.7734 52.759 50.5401 53.2142 50.2056 53.5906C49.8711 53.9669 49.4464 54.252 48.9714 54.419C48.4963 54.586 47.9867 54.6294 47.4902 54.5452C46.9938 54.461 46.527 54.2519 46.1336 53.9376L46.1331 53.9372L39.0242 48.2501H23.9757L16.8669 53.9372L16.8664 53.9376C16.473 54.2519 16.0062 54.461 15.5097 54.5452C15.0133 54.6294 14.5036 54.586 14.0286 54.419C13.5536 54.252 13.1288 53.9669 12.7943 53.5906C12.4598 53.2142 12.2265 52.759 12.1164 52.2677L12.1157 52.2646L9.09153 38.5698C8.98336 38.1294 8.98108 37.6695 9.085 37.2278C9.1896 36.7833 9.39877 36.3701 9.69509 36.0227L17.2036 27.0316C17.4003 23.7941 18.1189 20.8525 19.1397 18.2243C22.0111 10.8318 27.2301 6.02491 29.6372 4.09786ZM43.6833 27.404C43.6673 27.3193 43.6625 27.2332 43.6685 27.1479C43.4793 24.1171 42.8087 21.3828 41.8745 18.9546C39.207 12.0209 34.3476 7.47824 32.0991 5.64838L32.0892 5.64035L32.0893 5.64029C31.9239 5.50217 31.7153 5.42651 31.4999 5.42651C31.2844 5.42651 31.0758 5.50217 30.9104 5.64029L30.8941 5.65364C28.6222 7.47118 23.6976 12.0136 21.004 18.9484C20.0346 21.4444 19.3483 24.2643 19.1862 27.3975C19.187 27.4424 19.1848 27.4873 19.1795 27.5321C18.9291 32.8817 20.2082 39.1388 24.2061 46.2501H38.7878C42.7364 39.0811 43.969 32.7814 43.6833 27.404ZM51.7728 37.3082L45.7017 30.0229C45.5152 35.0638 44.067 40.7402 40.6592 46.9968L47.382 52.3751C47.5104 52.4777 47.6627 52.5459 47.8247 52.5734C47.9867 52.6008 48.153 52.5867 48.308 52.5322C48.463 52.4777 48.6016 52.3847 48.7108 52.2619C48.8196 52.1394 48.8956 51.9913 48.9317 51.8315L48.932 51.8302L51.9583 38.1259C51.9604 38.1164 51.9626 38.107 51.965 38.0975C51.9989 37.9626 52 37.8214 51.9681 37.6859C51.9362 37.5504 51.8723 37.4245 51.7817 37.3188L51.7727 37.3083L51.7728 37.3082ZM17.18 30.18L11.2265 37.3091L11.2183 37.3189L11.2182 37.3189C11.1276 37.4245 11.0637 37.5504 11.0318 37.6859C11 37.8214 11.001 37.9626 11.035 38.0976C11.0374 38.107 11.0396 38.1164 11.0417 38.1259L14.0679 51.8302L14.0682 51.8314C14.1043 51.9913 14.1803 52.1394 14.2892 52.2619C14.3983 52.3847 14.5369 52.4777 14.6919 52.5322C14.8469 52.5867 15.0133 52.6008 15.1752 52.5734C15.3372 52.5459 15.4896 52.4777 15.6179 52.3751L22.3349 47.0015C18.8946 40.8103 17.4052 35.1848 17.18 30.18ZM26.5625 55.1251C26.5625 54.5728 27.0102 54.1251 27.5625 54.1251H35.4375C35.9898 54.1251 36.4375 54.5728 36.4375 55.1251C36.4375 55.6774 35.9898 56.1251 35.4375 56.1251H27.5625C27.0102 56.1251 26.5625 55.6774 26.5625 55.1251ZM34.4531 23.6251C34.4531 25.2561 33.131 26.5782 31.5 26.5782C29.869 26.5782 28.5469 25.2561 28.5469 23.6251C28.5469 21.9941 29.869 20.672 31.5 20.672C33.131 20.672 34.4531 21.9941 34.4531 23.6251Z" fill="#005142"/>
</svg>
